<svg xmlns="http://www.w3.org/2000/svg" xmlns:xlink="http://www.w3.org/1999/xlink" width="300" zoomAndPan="magnify" viewBox="0 0 224.87999 225" height="300" preserveAspectRatio="xMidYMid meet" version="1.0"><defs><g/></defs><path fill="#ea8000" d="M 207.941406 142.390625 C 192.847656 194.648438 137.964844 224.859375 85.335938 209.691406 C 32.621094 194.507812 2.230469 139.722656 17.320312 87.414062 C 32.382812 35.121094 87.28125 5.03125 140.011719 20.160156 C 192.574219 35.363281 223.070312 90.046875 207.941406 142.390625 Z M 207.941406 142.390625 " fill-opacity="1" fill-rule="nonzero"/><path fill="#ffdf00" d="M 207.824219 138.039062 C 192.609375 190.605469 137.671875 221.007812 85.027344 205.839844 C 32.367188 190.691406 1.953125 135.648438 17.167969 83.066406 C 32.363281 30.53125 87.28125 0.199219 140.011719 15.332031 C 192.574219 30.53125 223.054688 85.46875 207.824219 138.039062 Z M 207.824219 138.039062 " fill-opacity="1" fill-rule="nonzero"/><path fill="#ffea94" d="M 179.546875 38.097656 L 17.632812 81.960938 C 17.511719 82.359375 17.289062 82.703125 17.167969 83.097656 C 13.449219 95.941406 12.539062 108.910156 13.933594 121.429688 L 202.640625 70.304688 C 197.1875 58.164062 189.40625 47.230469 179.546875 38.097656 Z M 179.546875 38.097656 " fill-opacity="1" fill-rule="nonzero"/><path fill="#ffea94" d="M 207.183594 81.378906 L 16.308594 133.085938 C 16.941406 135.730469 17.238281 138.484375 18.0625 141.066406 L 208.941406 89.339844 C 208.355469 86.691406 207.992188 83.957031 207.183594 81.378906 Z M 207.183594 81.378906 " fill-opacity="1" fill-rule="nonzero"/><path fill="#ffbe00" d="M 184.328125 128.578125 C 172.902344 168.265625 131.425781 191.273438 91.808594 179.71875 C 52.085938 168.265625 29.144531 126.828125 40.589844 87.121094 C 52.085938 47.46875 93.546875 24.703125 133.214844 36.050781 C 172.902344 47.503906 195.792969 88.875 184.328125 128.578125 Z M 184.328125 128.578125 " fill-opacity="1" fill-rule="nonzero"/><path fill="#faa400" d="M 91.808594 179.71875 C 131.425781 191.277344 172.902344 168.265625 184.328125 128.578125 C 188.289062 114.859375 190.679688 106.328125 187.167969 93.519531 L 43.980469 134.046875 C 50.867188 157.96875 66.097656 172.328125 91.808594 179.71875 Z M 91.808594 179.71875 " fill-opacity="1" fill-rule="nonzero"/><path fill="#ffffff" d="M 199.1875 92.476562 C 195.6875 58.101562 161.375 35.75 161.027344 35.527344 L 164.195312 30.589844 C 165.707031 31.558594 201.246094 54.722656 205.027344 91.882812 Z M 199.1875 92.476562 " fill-opacity="1" fill-rule="nonzero"/><path fill="#ffffff" d="M 96.050781 199.945312 C 41.675781 191.078125 25.246094 143.066406 25.085938 142.585938 L 30.660156 140.75 L 27.871094 141.667969 L 30.660156 140.746094 C 30.808594 141.195312 46.21875 185.875 96.996094 194.160156 Z M 96.050781 199.945312 " fill-opacity="1" fill-rule="nonzero"/><path fill="#ffffff" d="M 150.613281 26.351562 C 150.183594 27.78125 144.453125 27.195312 137.777344 25.132812 C 131.1875 23.121094 126.210938 20.332031 126.609375 18.941406 C 127.054688 17.546875 132.769531 18.117188 139.394531 20.144531 C 145.949219 22.171875 151.027344 24.976562 150.613281 26.351562 Z M 150.613281 26.351562 " fill-opacity="1" fill-rule="nonzero"/><path fill="#f69000" d="M 112.617188 184.480469 C 105.4375 184.480469 98.265625 183.453125 91.308594 181.421875 C 50.710938 169.71875 27.191406 127.195312 38.882812 86.628906 C 48.320312 54.085938 78.597656 31.359375 112.515625 31.359375 C 119.652344 31.359375 126.78125 32.363281 133.707031 34.34375 C 174.261719 46.046875 197.738281 88.542969 186.035156 129.070312 C 176.640625 161.695312 146.453125 184.480469 112.617188 184.480469 Z M 112.515625 34.910156 C 80.167969 34.910156 51.292969 56.582031 42.296875 87.617188 C 31.144531 126.296875 53.578125 166.851562 92.300781 178.015625 C 98.9375 179.953125 105.773438 180.933594 112.617188 180.933594 C 144.878906 180.933594 173.664062 159.203125 182.621094 128.089844 C 193.78125 89.441406 171.394531 48.914062 132.722656 37.757812 C 126.121094 35.867188 119.324219 34.910156 112.515625 34.910156 Z M 112.515625 34.910156 " fill-opacity="1" fill-rule="nonzero"/><path fill="#faa400" d="M 112.839844 54.878906 C 113.820312 52.886719 115.472656 52.886719 116.453125 54.878906 L 131.167969 84.714844 C 132.148438 86.707031 134.765625 88.617188 136.96875 88.945312 L 169.925781 93.742188 C 172.128906 94.070312 172.628906 95.5625 171.027344 97.144531 L 147.191406 120.328125 C 145.589844 121.910156 144.609375 124.96875 144.953125 127.15625 L 150.613281 159.929688 C 150.976562 162.144531 149.667969 163.078125 147.722656 162.042969 L 118.226562 146.570312 C 116.265625 145.535156 113.046875 145.535156 111.066406 146.570312 L 81.570312 162.042969 C 79.625 163.078125 78.316406 162.144531 78.710938 159.929688 L 84.339844 127.15625 C 84.699219 124.96875 83.703125 121.910156 82.117188 120.328125 L 58.265625 97.148438 C 56.679688 95.566406 57.164062 94.070312 59.367188 93.742188 L 92.324219 88.945312 C 94.5625 88.621094 97.144531 86.707031 98.140625 84.714844 Z M 112.839844 54.878906 " fill-opacity="1" fill-rule="nonzero"/><path fill="#ffffa4" d="M 110.964844 57.132812 C 111.839844 55.359375 113.234375 55.359375 114.113281 57.132812 L 127.019531 83.304688 C 127.898438 85.058594 130.1875 86.707031 132.132812 87.019531 L 161.042969 91.214844 C 163.007812 91.507812 163.4375 92.832031 162.042969 94.222656 L 141.097656 114.585938 C 139.6875 115.960938 138.828125 118.660156 139.152344 120.570312 L 144.109375 149.335938 C 144.4375 151.261719 143.265625 152.105469 141.5625 151.210938 L 115.660156 137.589844 C 113.957031 136.695312 111.117188 136.695312 109.398438 137.589844 L 83.496094 151.210938 C 81.789062 152.105469 80.640625 151.265625 80.964844 149.335938 L 85.902344 120.570312 C 86.230469 118.660156 85.371094 115.960938 83.957031 114.585938 L 63.03125 94.222656 C 61.621094 92.832031 62.070312 91.507812 64.015625 91.214844 L 92.941406 87.019531 C 94.886719 86.707031 97.160156 85.058594 98.039062 83.304688 Z M 110.964844 57.132812 " fill-opacity="1" fill-rule="nonzero"/><g fill="#6b4e2a" fill-opacity="1"><g transform="translate(93.640523, 130.268666)"><g><path d="M 11.609375 -15.5 L 11.609375 0 L 2.8125 0 L 2.8125 -38.625 L 11.609375 -38.625 L 11.609375 -23.21875 L 24.0625 -23.21875 L 24.0625 -38.625 L 32.859375 -38.625 L 32.859375 0 L 24.0625 0 L 24.0625 -15.5 Z M 11.609375 -15.5 "/></g></g></g></svg>